<?xml version="1.0" encoding="UTF-8"?>
<svg id="Layer_2" data-name="Layer 2" xmlns="http://www.w3.org/2000/svg" viewBox="0 0 45.88 46.92">
  <defs>
    <style>
      .game-border {
        fill: #fdfdf9;
      }

      .game-bg {
        fill: #ff9612;
      }

      .game-tiles {
        fill: #fec933;
      }

      .cls-4 {
        fill: #ae5713;
      }

      .cls-5 {
        fill: #fb8e07;
      }
    </style>
  </defs>
  <g id="_1080_x_1080_px_Logo_1" data-name="1080 x 1080 px Logo 1">
    <g id="Graphic_Elements" data-name="Graphic Elements">
      <g>
        <path
          class="cls-5"
          d="M44.4,20.56c-.08-.78.4-2.24.29-3.49-.08-.84-.5-2.31-.87-3.06-.52-1.06-1.73-1.89-2.49-2.63-1.8-1.75-1.36-1.52-2.42-3.69-.82-1.68-2.31-3.42-4.14-3.89-1.82-.47-3.7.04-5.04-.29-.2-.05-1.47-2.03-1.88-2.35-2.24-1.7-6.86-1.41-9.19.02-.69.42-1.42,1.74-2.47,1.97-.97.22-2.09-.09-3,.06-1.61.27-4.98,2.51-5.8,3.97-.48.87-.54,2.37-1.2,3.18-1.54,1.91-3.59,2.26-4.3,5.32-.59,2.51-.29,3.07-1.36,5.64-.83,1.98-.67,5.84.32,7.77.25.47,2.03,2.16,2.08,2.31.21.61-.05,1.54.08,2.26.77,4.26,4.47,8.48,8.64,9.44,3.06.7,3.25,1.2,5.91,2.4,4.68,2.12,8.46,1.9,12.91-.86.41-.25.34-.84,1.21-1.2,1.19-.5,1.98.24,3.14-.29,3.14-1.45,7.86-5.55,8.38-9.18.13-.9-.16-2.02.08-2.83.17-.58,1.17-1.09,1.52-1.69,1.14-1.92,1.43-5.42.52-7.48-.23-.51-.88-.81-.94-1.4Z" />
        <path
          class="game-tiles"
          d="M44.23,20.4c-.08-.78.4-2.23.29-3.47-.08-.83-.5-2.29-.86-3.04-.52-1.06-1.72-1.88-2.47-2.61-1.78-1.73-1.35-1.5-2.4-3.66-.81-1.67-2.29-3.39-4.1-3.85-1.81-.46-3.67.04-5-.28-.2-.05-1.46-2.02-1.87-2.33-2.22-1.69-6.81-1.4-9.12.02-.69.42-1.41,1.72-2.45,1.96-.96.22-2.08-.09-2.98.06-1.6.27-4.94,2.49-5.75,3.94-.48.86-.54,2.35-1.19,3.15-1.53,1.89-3.56,2.24-4.27,5.28-.58,2.49-.28,3.04-1.35,5.59-.82,1.96-.67,5.8.32,7.71.24.47,2.02,2.14,2.07,2.29.21.61-.05,1.53.07,2.24.77,4.23,5.58,7.67,8.62,7.53s3.18,1.55,6.04,2.7c2.63,1.05,5.18,1.73,9.19,1.44.47-.03,3.95-2.86,4.88-2.93,1.46-.11,1.78-.33,2.93-.86,3.11-1.44,6.5-3.93,7.02-7.54.13-.9,1.05-2.04,1.29-2.85.17-.58,1.16-1.08,1.51-1.67,1.13-1.91,1.42-5.38.52-7.42-.23-.51-.88-.8-.93-1.39Z" />
        <circle class="cls-4" cx="38.09" cy="28.99" r="2.16" />
        <path class="cls-4" d="M14.83,10.98c-3.1,2.51-4.75-4.33-1.17-3.96,1.99.2,2.59,2.81,1.17,3.96Z" />
        <circle class="cls-4" cx="12.55" cy="37.68" r="1.97" />
        <circle class="game-bg" cx="33.36" cy="37.45" r="2.16" />
        <path class="game-bg" d="M27.34,42.3c-3.1,2.51-4.75-4.33-1.17-3.96,1.99.2,2.59,2.81,1.17,3.96Z" />
        <circle class="game-bg" cx="23.12" cy="5.75" r="1.97" />
        <path class="game-bg" d="M6.41,27.68c-3.1,2.51-4.75-4.33-1.17-3.96,1.99.2,2.59,2.81,1.17,3.96Z" />
        <circle class="cls-4" cx="34.92" cy="10.06" r="1.97" />
        <path
          class="game-border"
          d="M36.73,19.13c0,3.26-.52,7.05-5.69,7.18-5.48.14-6.55-3.98-6.55-7.24s3.44-5.56,6.3-5.56,5.95,2.35,5.95,5.62Z" />
        <path
          class="game-border"
          d="M21.43,18.86c0,3.26-1.5,6.86-5.69,7.18-4.59.35-6.41-3.85-6.41-7.11s3.29-5.69,6.15-5.69,5.95,2.35,5.95,5.62Z" />
        <path
          d="M17.96,28.71c.09.06.47,1.33,1.18,1.9,1.43,1.15,3.62,1.26,5.15.27,1.41-.91,1.08-2.92,3.22-2.18.17.06.31.18.39.34.75,1.56-1.3,3.47-2.53,4.21-3.4,2.05-9.72.56-9.52-3.94.01-.28.19-.52.45-.6.55-.16,1.41-.17,1.66-.01Z" />
        <circle cx="30.62" cy="19.82" r="3.32" />
        <path d="M17.58,17.09c2.88,2.7-1.22,7.98-4.43,5.23-3.37-2.89,1.23-8.22,4.43-5.23Z" />
      </g>
    </g>
  </g>
</svg>
