<?xml version="1.0" encoding="UTF-8"?>
<svg id="Layer_2" xmlns="http://www.w3.org/2000/svg" version="1.1" viewBox="0 0 467.6 395.3">
  <!-- Generator: Adobe Illustrator 29.5.1, SVG Export Plug-In . SVG Version: 2.1.0 Build 141)  -->
  <defs>
    <style>
      .st0 {
        fill: #fdfdf9;
      }

      .st1 {
        fill: #b5288e;
        stroke: #000;
        stroke-miterlimit: 10;
        stroke-width: 0.2px;
      }

      .st2 {
        fill: #ffba33;
      }

      .st3 {
        fill: #0e90a6;
      }

      .st4 {
        fill: #ff5b14;
      }
    </style>
  </defs>
  <g id="_10801080_px_Logo_1">
    <g id="Graphic_Elements">
      <g>
        <path
          class="st1"
          d="M4.6,149.3c-15.2,68,7.8,124.7,75.6,149.1,14.6,5.9,29,10.9,42.5,18.1,10.9,5.7,20.8,12.8,30.1,20.8,16.5,13.9,31.2,30,49.8,41.3,28.4,18.2,65.6,22,96.9,8.9,12.6-5,25-11.9,36.8-19.2,12.2-7.7,24.3-15.6,36.6-23.4,32.6-20.1,63-38.1,80.4-74,23.7-50,16.9-112.4-13.6-158-27.5-40.8-76.8-73.6-120.9-93.9C279.7,1.4,235.6-3.3,193.1,2.5c-30.1,3.8-58.3,14.5-84.7,28.9C61.2,57,16.5,94.5,4.6,149.1v.2s0,0,0,0Z" />
        <path
          class="st4"
          d="M174.8,61.1c-10-1.5-19.4.3-26.1,4.9l18.2,22.1c4.8-2.4,11.9-.2,17.1,3.2l16.7-16.9c-5.3-6.7-15.1-11.8-26-13.4h0Z" />
        <path
          class="st4"
          d="M138.7,114.2l23.2-8.7c-.7-4.1-1.3-11.4,2.6-15.6l-18.2-22.1c-13.1,11.5-11.2,33.7-7.6,46.3Z" />
        <path class="st4" d="M320.3,76.3l-24.6,1c.7,4.6,1.4,14.4-3.1,24.6l19.9,10.8c9.5-12.5,8.6-29.2,7.9-36.4h0Z" />
        <path
          class="st4"
          d="M139.6,117.1c4.3,12.6,12.8,21.5,20.5,29.3l21.1-14.4-1.6-1.6c-10.1-9.6-15-14.3-17.1-21.9l-22.9,8.6h0Z" />
        <path
          class="st4"
          d="M172.4,156.8c3.5,2.6,7.5,5.4,14,11.7l19.5-12.2c-5.6-6.3-11.6-11.9-22.4-22.3l-21.2,14.4c4.1,4,6.9,6.1,10.1,8.4h0Z" />
        <path class="st4" d="M219,109.3l-19.2,9.5c4.1,7.4,13.5,21.4,26,23.3l1.3-24.9c-3.1-.7-5.8-4.2-8.2-7.9h0Z" />
        <path
          class="st4"
          d="M219,90.4c2.4,2.6,5.1,4.7,7.6,6.6,4.1,3.1,8,6.1,8.5,10.6l23.7,3.4c-.9-4.3-3.9-7.3-7.6-11-4.7-4.7-10.5-10.5-14.2-21.1l-17.8,11.6h0Z" />
        <path
          class="st4"
          d="M254.1,22.8l4.8,22.2c10.6-.4,18.6,4.3,22.4,7.1l18.5-17.4c-16.8-13.9-36.5-13.2-45.7-12h0Z" />
        <path class="st4" d="M320,73.4c-2.3-18.4-10.7-30-17.9-36.6l-18.5,17.3c8,7.1,10.5,16,11.5,20.2l24.9-1h0Z" />
        <path class="st4" d="M217.1,43l20.1,11.1c3.6-4.9,9.9-7.9,18.7-8.8l-4.7-21.9c-7.9,1.4-24.7,5-34,19.7h0Z" />
        <path
          class="st4"
          d="M230.3,116.8l-1.4,25.4c6.9,0,14.7-3.7,21-10,5.7-5.7,9.1-12.5,9.1-18.3l-24.2-3.5c-.6,2.7-2.3,5.3-4.6,6.3h0Z" />
        <path class="st4" d="M235.6,56.7l-20-11c-7,13.4-6.4,31.5,1.5,42.4l18.8-12.2c-1.5-5-3.5-12.5-.3-19.2h0Z" />
        <path
          class="st4"
          d="M208.2,194.5l18.5-10.4c-5.5-8.9-11.8-17.4-18.9-25.5l-19.3,12.1c10.5,10.4,16.6,19,19.7,23.8h0Z" />
        <path
          class="st4"
          d="M206.4,85.2c-1.4-3.2-2.5-5.9-3.9-8.3l-16,16.2c4.7,3.9,6.3,8.5,8.2,13.7,1,2.8,2.1,5.8,3.8,9.2l18.9-9.4c-5.8-9.3-8.6-16.1-11-21.5h0Z" />
        <path
          class="st4"
          d="M150.5,192.9c.8-4.5,1.5-8.1,1.6-13.4l-24.7.2c.2,7.9-.7,12.4-1.7,17.6-.8,3.8-1.6,8.1-2.1,14.4l24,5.6c.8-12.3,2-18.9,3-24.3h0Z" />
        <path class="st4" d="M152.1,176.5c0-8.5-.4-23.9-9.2-38.7l-22.7,12.1c4,6.2,6.4,15.4,7,26.8l24.9-.2h0Z" />
        <path class="st4" d="M57.9,124.3l26.7,17.5c4.1-3.8,8.9-6.4,14.1-6.5l1.6-26.6c-15.9-1.5-32.3,4.5-42.4,15.6Z" />
        <path
          class="st4"
          d="M103.3,109.1l-1.6,26.5c8.2,1.2,13.9,8.2,16.7,11.9l22.8-12.2c-9.8-14.8-22.9-23.9-38-26.2Z" />
        <path
          class="st4"
          d="M72.4,260.1c5.8.9,17.7-3.6,21.4-9.4,1.3-1.9,1.4-3.6.3-5.2-3.4-4.8-6.5-9.8-9.3-15-5.3-9.8-9.5-20.3-12.5-31.1l-25,3.9c3.8,21.1,10.1,54.5,25,56.9Z" />
        <path class="st4" d="M70,166.9l-25.2,1.1c-.6,9.2.2,20.5,2.2,32.2l24.5-3.8c-2.6-7.4-4.5-17.9-1.5-29.5h0Z" />
        <path
          class="st4"
          d="M151.6,249.5l-23.4,4.6c7.5,16.3,20.6,25.2,25.4,27.9l11.7-18.4c-7-4.1-11.3-9.7-13.8-14.1h0Z" />
        <path class="st4" d="M195.2,267.1l4,20.4c17.4-5,28-16.7,33.2-24.1l-17.1-13.3c-4.7,8.3-11.8,14.3-20.1,17.1h0Z" />
        <path class="st4" d="M216.7,247.3l17.3,13.5c3.6-5.9,11.5-21.2,9.2-40.1l-23.3,2.5c.7,5.3,1.3,14.4-3.3,24.1h0Z" />
        <path
          class="st4"
          d="M219.5,220.3l23.3-2.5c-1.7-9.8-6.2-17.3-14.5-31.1l-18.5,10.4c4.4,7.3,8.2,13.9,9.7,23.2h0Z" />
        <path class="st4" d="M168,265l-11.7,18.4c6.9,3.4,21.9,9,40.1,4.8l-3.9-20.3c-10.4,2.5-19.3-.4-24.4-2.9Z" />
        <path class="st4" d="M147.3,220.3l-24-5.6c-.8,12.2-1.3,23.9,3.7,36.5l23.1-4.6c-2.9-6.3-3.5-13-2.8-26.4h0Z" />
        <path class="st4" d="M45,165l25.9-1.2c2.1-6.2,6.2-14,11.6-19.8l-26.5-17.4c-8.5,10.7-9.8,23.1-11,38.4h0Z" />
        <path class="st4" d="M367.9,302.4l3.1,24.8c7.9-1.5,24-6.5,35.3-21.7l-20.8-13.1c-3.3,3.8-8.8,8.2-17.6,10h0Z" />
        <path
          class="st4"
          d="M325.4,282.8c-.9-1.1-1.9-2.2-3-3.5l-20.3,13.7c3.3,4.7,13,17.7,25.6,25.7l12.5-21.9c-6-3.6-9.5-7.6-14.9-14h0Z" />
        <path
          class="st4"
          d="M303.6,121.5c2.3-2,4.7-4.1,6.9-6.4l-19.2-10.4c-3.5,6.6-7.8,9.6-11.8,12.5-3.3,2.3-6.6,4.7-9.8,9.1l21.6,10.9c2.4-7.1,7.4-11.4,12.3-15.6h0Z" />
        <path
          class="st4"
          d="M294.4,250.6l-9.7,21.2c5.7,2.1,8.8,7.2,12.6,13.5,1,1.7,2,3.4,3.2,5.2l20-13.5c-12.9-15-20-23.2-26.1-26.4h0Z" />
        <path
          class="st4"
          d="M262.6,318.2c3.4,4.7,6.1,8.5,5.6,11.7l24.5,11.6c4.3-13.1-8-34.2-13.2-42.2l-20.7,13.2c1.3,2,2.7,3.9,3.9,5.6h0Z" />
        <path
          class="st4"
          d="M267.1,277l-19-13.2c-7.7,16.1,5.5,40.4,9,46.3l20.7-13.2c-1.4-2.1-2.9-4-4.2-5.8-4.1-5.6-7.5-10.1-6.5-14.1h0Z" />
        <path class="st4" d="M249.6,261.1l18.9,13.2c2.8-3.1,8.5-4.1,13.3-3.3l9.8-21.6c-13.3-4.6-33.9-.6-42,11.7h0Z" />
        <path class="st4" d="M334.9,184.5c-9.9-.9-31.7-2.4-42.7,10l23.7,16.9c3-3.6,9.8-4.1,17.3-4.1l1.7-22.8h0Z" />
        <path
          class="st4"
          d="M341.3,244.1l-3-21.1c-.5.1-1,.3-1.5.4-6.4,1.9-13.5,4-18.3.9l-20.5,19.2c8.1,4.7,20.4,3.4,43.3.6h0Z" />
        <path
          class="st4"
          d="M353.2,242.5c9.5-1.4,15-2.3,21.4.6l14.3-19.3c-13.9-6.1-33.5-5.3-47.7-1.6l3,21.6c3.4-.4,6.3-.9,8.9-1.3Z" />
        <path
          class="st4"
          d="M392,264.9l23.3-6.5c-5.3-21.2-18.3-30.3-23.6-33.2l-14.4,19.4c7.2,4.3,12.7,11.8,14.6,20.4h0Z" />
        <path class="st4" d="M387.4,290l20.7,13c11.1-16.9,9.3-34.7,7.9-41.8l-23.5,6.5c.6,4.7.8,13.8-5.1,22.2h0Z" />
        <path class="st4" d="M342.9,298.3l-12.5,22c16,9.1,32.5,8.1,37.6,7.5l-3.1-24.8c-9.9,1.2-17.8-2.4-22-4.6Z" />
        <path class="st4" d="M423.4,138.7c-1-7.9-4.3-26.4-20.1-40l-17.3,19.4c6.6,5.2,11,12.6,13.2,22.1l24.3-1.5Z" />
        <path
          class="st4"
          d="M318.2,120.8l20.6,10.6c8.9-13.3,13.8-18.3,20-20.2l-6.1-24.8c-16.3,5.6-28.9,21-34.5,34.4Z" />
        <path class="st4" d="M249.5,333.9l-6.4,22.9c26.8,1,43-3.2,48.3-12.5l-24.7-11.8c-3.2,3.1-10.6,2.5-17.2,1.4h0Z" />
        <path
          class="st4"
          d="M315.3,128.9c-2.4,7.5-4.9,15.2-11.5,19l11.4,22.1c3.2-2.7,4.6-5.5,7.3-10.8,2.6-5.2,6.6-13,14.5-25.1l-20.1-10.3c-.6,1.7-1.2,3.5-1.8,5.2h0Z" />
        <path class="st4" d="M290.4,140l-22.5-11.4c-9.3,14.9-7.6,30.4-3.2,37.7l26-19.1c-1.2-2.3-.7-5.3-.3-7.3h0Z" />
        <path class="st4" d="M292.8,149.4l-26.3,19.3c8.9,10,30.9,13.1,46.3,2.9l-11.7-22.6c-2.3.8-5.8,1.7-8.3.4h0Z" />
        <path class="st4" d="M355.6,85.6l6.2,25c6.8-1.1,14.4.9,21.7,5.8l17.4-19.6c-5.1-3.8-24.6-16.7-45.3-11.2h0Z" />
        <path
          class="st4"
          d="M214.4,318.6c-5.5-3.7-9.7-6.5-13.7-6.5s-1.8.1-2.6.4c-7,2.4-11.9,14.4-9.6,23.2,3.2,12.1,21.4,19.5,51.5,21l6.6-23.4c-14.8-3.1-24.8-9.8-32.1-14.7h0Z" />
        <path class="st4" d="M423.7,141.6l-24,1.5c2,12-1,21-4.2,26.8l20.3,12.4c10.1-16.7,8.8-33.6,8-40.7h0Z" />
        <path
          class="st4"
          d="M314.5,214.1l-24.2-17.2c-4.3,6.3-6.1,15.3-4.8,24.5,1.2,8.6,4.9,16.1,10,20.4l20.8-19.4c-1.8-2.4-2.5-5.5-1.8-8.2h0Z" />
        <path
          class="st4"
          d="M372.6,211l-4.5-22c-6.9,1.3-11.5,0-17.2-1.5-3.6-1-7.6-2.1-13-2.7l-1.7,22.5c12.5.1,19.5,1.4,25.3,2.5,4,.7,7.2,1.3,11.1,1.2h0Z" />
        <path
          class="st4"
          d="M414.1,184.9l-20.3-12.4c-7,10.3-17.4,14.4-22.8,15.9l4.6,22.5c20.6-2.1,34.7-20.5,38.5-25.9h0Z" />
        <path
          class="st3"
          d="M393.4,220.8c-15.1-7.4-37.4-6.5-52.8-2.2-1,.3-2.1.6-3.2.9-6.1,1.8-13.1,3.9-16.5.7-1.9-1.8-2.8-5-1.8-7.1,1.5-3.3,7.9-3.9,17-3.9,13.2,0,20.5,1.4,26.4,2.4,4.8.9,8.5,1.6,13.6,1.2,25-1.7,41.2-25.9,43-28.7,12.3-19.2,9.9-38.9,9.1-45.4-.9-7.2-3.6-29.1-22.5-44.5-2.5-2.1-25.5-20-50.7-12.3-18.5,5.6-32.6,23.1-38.4,37.9-.9,2.2-1.6,4.6-2.4,6.9-2.5,7.7-4.8,15-11.3,17.9-2.7,1.2-6.1,1.9-7.4.7-1.1-1-1.1-3.3-.2-6.9,1.9-7.2,6.7-11.4,11.9-15.8,2.9-2.5,5.9-5,8.5-8.2,11.9-14.4,9.8-34.4,9.2-41-2.2-21.2-12.1-34-20.1-41-19-16.7-42-15-51-13.5-7.6,1.3-28,4.7-38.3,22.7-8.6,15-7.8,36.2,1.9,48.2,2.8,3.5,6.2,6.1,9.2,8.3,4.2,3.2,7.5,5.7,7.3,9.4-.2,2.6-1.9,5.2-3.5,5.5-2.6.4-6.2-5.3-7.8-7.7-6.3-9.9-9.2-16.9-11.6-22.5-1.8-4.1-3.1-7.4-5.2-10.3-5.6-7.8-16.6-13.8-28.8-15.6-11.6-1.7-22.1.6-29.6,6.5-16.2,12.7-13.5,38.7-9.3,52,4.5,14.5,14.1,24.2,22.6,32.7,5,5.1,8.3,7.5,11.8,10,3.8,2.7,7.7,5.6,14.5,12.2,12.1,11.8,18.5,21.2,21.3,25.8,4.8,7.9,9,14.8,10.4,24.8.7,5.1,2,14.7-3.3,25-4.6,8.8-11.8,15.1-20.4,17.6-11,3.2-20.3-.5-24.9-2.9-7.8-4.1-12.1-10.2-14.4-14.7-3.4-6.6-4.2-12.8-3.3-27.9.8-13.3,2.1-20.2,3.1-25.8.9-5,1.6-9,1.7-15.5,0-8.5.2-26.2-10.4-43-10.7-17-25.4-27.1-42.7-29.1-17.9-2.2-36.7,4.8-47.6,17.8-10.3,12.1-11.3,25.7-12.6,42.9-.8,10.1,0,22.7,2.4,35.7,4.1,23.1,10.4,58.1,27.7,60.9,6.9,1.1,20-3.9,24.4-10.8,1.9-2.9,2-5.9.3-8.6h0c-3.3-4.8-6.4-9.7-9.1-14.8-5.4-10-9.7-20.7-12.6-31.8h0c-2.8-7.5-5.4-19-1.5-31.5,2.1-6.6,5.8-13.5,10.2-18.5,3.7-4.3,9.5-9.3,16.5-8.9,8.4.5,14.3,8.5,16.8,11.9,4.3,5.9,7,15.9,7.5,28,.3,8.6-.6,13.1-1.6,18.4-.8,4.1-1.8,8.8-2.2,16.1-.9,13.6-1.8,26.5,4.2,40.8,8.4,20.2,25.4,30,28.7,31.8,6.5,3.5,23.8,10.9,45,5.5,20.3-5.2,32.1-19.1,37.3-26.9,3.3-4.9,13.6-22.6,10.4-45-1.7-11.5-6.4-19.3-15.9-35-5.9-9.8-12.9-19.3-20.8-28.2-6.3-7.1-12.4-12.9-24.6-24.6l-3-2.8c-10.3-9.8-15-14.3-16.6-22-1.1-5.5-1.1-12.3,2.4-14.8,4.2-3,11.8.3,15.9,3.2,5,3.6,6.5,7.7,8.5,13.3,1.1,3.2,2.4,6.8,4.6,10.9,4,7.6,15.1,25.3,30.7,26.4,8.1.6,17.4-3.4,24.8-10.8,6.7-6.7,10.5-14.9,10-21.8-.5-6.5-4.3-10.3-8.8-14.8-5-5-10.6-10.6-14.1-21.8-1.6-5.1-4-12.9-.1-19.2,3.1-5.1,9.4-8,18.9-8.8,11.6-.9,20.3,5.3,22.6,7.2,9.1,7.4,11.2,17.2,12,20.9.7,3.2,2.4,14.3-3.1,25.8-3.4,6.9-7.4,9.7-11.6,12.7-3.8,2.7-7.8,5.5-11.6,11.2-8.1,12.2-11.9,31.6-3,43.5,5,6.7,14.1,10.9,24.9,11.4,10.1.5,20.4-2.3,27.6-7.4,4.9-3.5,6.5-6.6,9.6-13,2.7-5.3,6.8-13.4,15.3-26.2,9.6-14.4,14.2-19,20.4-20.5,6.7-1.6,14.4.5,21.8,5.8,10.5,7.5,12.9,18.8,13.6,22.6,2.6,12.8-.9,22.1-4.3,27.6-7,11.3-18.6,15.1-23.2,16.1-7.1,1.6-11.4.5-17.3-1.1-4-1.1-8.6-2.3-15-3-9.8-1-35.6-3.6-47.9,12.2-5.5,7-7.7,17.2-6.2,27.9,1.4,9.9,5.9,18.6,12.1,23.1,9.1,6.8,22.3,5.2,48.5,2,4-.5,7.5-1,10.5-1.5,9.8-1.5,14.7-2.2,20.8.9,7.6,3.9,13.4,11.8,14.9,20.7.5,3,1.7,13.5-5.3,22.5-3,3.8-8.5,8.6-18,10.2-10.7,1.8-19.3-2.8-22.9-4.8-6.4-3.5-9.6-7.2-15.3-14.1-1.2-1.4-2.4-2.9-3.8-4.5-14.9-17.4-22.4-26.1-29.6-29.1-7.7-3.2-17.4-3.6-26.7-1.1-9.6,2.5-17.4,7.9-21.3,14.7-11,19.1,7,48.8,9.1,52.2,1.6,2.6,3.3,4.9,4.8,7,3.2,4.4,5.9,8.1,4.8,10-.9,1.6-4.4,3-16.3.8-15.1-2.8-24.8-9.3-32.6-14.6-7.1-4.8-12.8-8.6-19-6.5-7.7,2.7-14.5,15.5-11.5,26.8,3.6,13.8,22.8,21.9,55.4,23.3,2.5.1,6.1.3,10.2.3,14.9,0,37.4-2,43.6-15.8,6.5-14.6-7.4-38.3-13.7-47.8-1.7-2.6-3.5-5-5.1-7.2-4-5.3-7.1-9.5-5.8-12.2,1.4-2.8,7.1-4.1,12.1-2.9,5.6,1.4,8.5,6.1,12.5,12.7,1.3,2.1,2.6,4.2,4.1,6.5,2.1,3.2,13.5,19.5,28.7,28.7,19.4,11.7,40.1,8.8,42.4,8.4,7.7-1.3,27-6.2,39.8-24.5,13.7-19.7,10.2-40.9,8.9-46.9-1.5-6.4-7.7-27.9-26.6-37.2h0ZM217.1,44.5l20,11c-3.2,6.7-1.3,14.2.3,19.2l-18.8,12.2c-7.9-11-8.5-29-1.5-42.4h0ZM86.4,229.3c2.8,5.1,5.9,10.2,9.3,15,1,1.6.9,3.3-.3,5.2-3.8,5.8-15.7,10.4-21.4,9.4-14.9-2.4-21.2-35.9-25-56.9l25-3.9c3,10.8,7.2,21.3,12.5,31.1ZM72.9,195.3l-24.5,3.8c-2-11.7-2.8-23-2.2-32.2l25.2-1.1c-3.1,11.6-1.1,22.1,1.5,29.5h0ZM72.3,162.7l-25.9,1.2c1.2-15.4,2.4-27.7,11-38.4l26.5,17.4c-5.4,5.9-9.5,13.6-11.6,19.8ZM86.1,140.7l-26.7-17.6c10.2-11.1,26.5-17.1,42.4-15.6l-1.6,26.6c-5.2.1-10,2.7-14.1,6.5ZM103.2,134.4l1.6-26.5c15.2,2.3,28.2,11.3,38,26.2l-22.8,12.2c-2.8-3.7-8.6-10.7-16.7-11.9ZM121.7,148.8l22.7-12.1c8.8,14.8,9.2,30.3,9.2,38.7l-24.9.2c-.6-11.4-3-20.6-7-26.8h0ZM127.1,196.2c1-5.1,1.9-9.6,1.7-17.6l24.7-.2c-.1,5.3-.8,9-1.6,13.4-1,5.4-2.2,12.1-3,24.3l-23.9-5.6c.5-6.4,1.3-10.7,2.1-14.4h0ZM124.8,213.6l24,5.6c-.7,13.3,0,20.1,2.8,26.4l-23.1,4.6c-5-12.6-4.5-24.3-3.6-36.5ZM129.6,253l23.4-4.6c2.5,4.4,6.7,10,13.8,14.1l-11.7,18.4c-4.7-2.8-17.9-11.6-25.4-27.9h0ZM157.7,282.3l11.7-18.4c5.1,2.5,14,5.4,24.4,2.9l3.9,20.3c-18.1,4.2-33.2-1.4-40.1-4.8ZM200.6,286.4l-4-20.4c8.3-2.8,15.3-8.8,20.1-17.1l17.1,13.3c-5.2,7.4-15.8,19.1-33.2,24.1h0ZM235.5,259.8l-17.3-13.5c4.6-9.6,3.9-18.8,3.3-24.1l23.3-2.5c2.3,18.9-5.6,34.2-9.2,40.1h0ZM244.3,216.7l-23.3,2.5c-1.5-9.3-5.3-15.9-9.7-23.2l18.5-10.4c8.3,13.8,12.8,21.3,14.5,31.1h0ZM228.2,183l-18.5,10.4c-3.1-4.8-9.2-13.3-19.7-23.8l19.3-12.1c7.1,8.1,13.4,16.7,18.9,25.5h0ZM207.3,155.2l-19.5,12.2c-6.5-6.3-10.5-9.1-14-11.7-3.2-2.3-6-4.3-10.1-8.4l21.2-14.4c10.8,10.4,16.8,16.1,22.4,22.3h0ZM181,129.3l1.6,1.6-21.1,14.4c-7.7-7.8-16.2-16.7-20.5-29.3l22.9-8.6c2.1,7.6,7,12.3,17.1,21.9h0ZM163.3,104.4l-23.2,8.7c-3.6-12.6-5.5-34.8,7.6-46.3l18.2,22.1c-3.9,4.1-3.4,11.4-2.6,15.6ZM168.4,87.1l-18.2-22.1c6.7-4.6,16.1-6.4,26.1-5,10.8,1.6,20.7,6.7,26,13.4l-16.7,16.9c-5.3-3.4-12.3-5.6-17.1-3.2h0ZM196.1,105.8c-1.9-5.2-3.5-9.8-8.2-13.7l16-16.2c1.4,2.3,2.6,5,3.9,8.3,2.3,5.4,5.2,12.2,11,21.5l-18.9,9.4c-1.7-3.4-2.8-6.5-3.8-9.2h0ZM201.3,117.7l19.2-9.5c2.4,3.7,5.1,7.2,8.2,7.9l-1.3,24.9c-12.5-1.9-21.9-15.9-26-23.3h0ZM251.3,131.2c-6.3,6.3-14,9.9-21,10l1.4-25.4c2.3-1,3.9-3.7,4.6-6.3l24.2,3.5c0,5.8-3.4,12.6-9.1,18.3h0ZM252.5,98.9c3.7,3.7,6.7,6.7,7.6,11l-23.7-3.4c-.4-4.5-4.3-7.4-8.5-10.6-2.5-1.9-5.2-3.9-7.6-6.6l17.8-11.6c3.7,10.7,9.5,16.4,14.2,21.1h0ZM238.6,53l-20.1-11.1c9.3-14.7,26.1-18.3,34-19.7l4.7,21.9c-8.8,1-15.1,3.9-18.7,8.8ZM260.3,43.9l-4.8-22.2c9.2-1.3,28.9-1.9,45.7,12l-18.5,17.4c-3.8-2.8-11.8-7.5-22.4-7.1h0ZM285.1,53l18.5-17.3c7.2,6.6,15.6,18.2,17.9,36.6l-24.9,1c-1-4.2-3.5-13.1-11.5-20.2h0ZM297.1,76.2l24.6-1c.7,7.2,1.6,23.9-7.9,36.4l-19.9-10.8c4.5-10.2,3.8-20.1,3.1-24.6h0ZM280.9,116c4.1-2.9,8.3-5.8,11.8-12.5l19.2,10.4c-2.2,2.4-4.5,4.4-6.9,6.4-4.9,4.2-10,8.5-12.3,15.6l-21.6-10.9c3.2-4.4,6.6-6.8,9.8-9.1h0ZM269.4,127.6l22.5,11.3c-.4,2-.9,5,.3,7.3l-26,19.1c-4.5-7.4-6.1-22.8,3.2-37.7h0ZM268,167.7l26.3-19.3c2.5,1.3,6,.5,8.3-.4l11.7,22.6c-15.4,10.2-37.4,7.1-46.3-2.9h0ZM324.1,158c-2.7,5.4-4.1,8.1-7.3,10.8l-11.4-22.1c6.6-3.8,9.1-11.5,11.5-19,.6-1.7,1.1-3.5,1.8-5.2l20.1,10.3c-8,12.1-11.9,19.9-14.5,25.1h0ZM340.3,130.4l-20.6-10.6c5.6-13.5,18.2-28.8,34.5-34.4l6.1,24.8c-6.2,1.9-11.1,6.9-20,20.2h0ZM363.2,109.4l-6.2-25c20.7-5.5,40.3,7.5,45.3,11.2l-17.4,19.6c-7.3-4.9-14.9-6.9-21.7-5.8h0ZM387.4,117l17.3-19.4c15.8,13.6,19.1,32.1,20.1,40l-24.3,1.5c-2.2-9.5-6.6-16.9-13.2-22.1h0ZM401.1,142.1l24-1.5c.8,7.1,2.1,24-8,40.7l-20.3-12.4c3.3-5.8,6.3-14.8,4.2-26.8h0ZM395.3,171.4l20.3,12.4c-3.8,5.4-17.9,23.8-38.5,25.9l-4.6-22.5c5.4-1.5,15.8-5.6,22.8-15.9h0ZM369.6,187.9l4.5,22c-3.9,0-7.1-.5-11.1-1.2-5.7-1.1-12.8-2.3-25.3-2.5l1.7-22.5c5.4.6,9.4,1.7,13,2.7,5.7,1.6,10.3,2.8,17.2,1.5h0ZM336.4,183.4l-1.7,22.8c-7.5,0-14.3.5-17.3,4.1l-23.7-16.9c11-12.4,32.9-10.9,42.7-10h0ZM287,220.2c-1.3-9.2.5-18.2,4.8-24.5l24.2,17.2c-.7,2.6,0,5.8,1.8,8.2l-20.8,19.4c-5.1-4.3-8.8-11.8-10-20.4h0ZM299.5,242.4l20.5-19.2c4.8,3.1,11.9,1,18.3-.9.5-.1,1-.3,1.5-.4l3,21.1c-22.9,2.8-35.2,4.1-43.3-.6h0ZM354.6,241.4c-2.6.4-5.6.8-8.9,1.3l-3-21.6c14.2-3.6,33.8-4.4,47.7,1.6l-14.3,19.3c-6.4-2.9-11.9-2.1-21.4-.6ZM378.8,243.4l14.4-19.4c5.4,2.9,18.3,12,23.6,33.2l-23.3,6.5c-2-8.5-7.4-16.1-14.6-20.4h0ZM189.9,334.6c-2.3-8.8,2.6-20.8,9.6-23.2.9-.3,1.7-.4,2.6-.4,4,0,8.2,2.9,13.7,6.5,7.4,5,17.4,11.7,32.1,14.7l-6.6,23.4c-30.1-1.5-48.3-9-51.5-21h0ZM244.5,355.8l6.4-22.9c6.7,1.1,14,1.8,17.2-1.4l24.7,11.8c-5.4,9.3-21.6,13.5-48.3,12.5h0ZM294.1,340.5l-24.5-11.6c.6-3.2-2.2-7.1-5.6-11.7-1.2-1.7-2.6-3.6-3.9-5.6l20.7-13.2c5.2,8,17.5,29.1,13.2,42.2h0ZM275,290c1.3,1.8,2.7,3.7,4.2,5.8l-20.7,13.2c-3.5-5.9-16.6-30.2-9-46.3l19,13.2c-1,4,2.4,8.5,6.5,14.1h0ZM270,273.2l-18.9-13.2c8.2-12.3,28.8-16.3,42-11.7l-9.8,21.6c-4.8-.9-10.5.1-13.3,3.3ZM298.8,284.2c-3.8-6.3-6.9-11.3-12.6-13.5l9.7-21.2c6.1,3.2,13.2,11.3,26.1,26.4l-20,13.5c-1.2-1.8-2.2-3.5-3.2-5.2h0ZM303.7,291.9l20.3-13.7c1,1.2,2,2.4,3,3.5,5.4,6.4,8.8,10.5,14.9,14l-12.5,21.9c-12.6-8-22.3-21-25.6-25.7h0ZM331.8,319.1l12.5-22c4.2,2.2,12.1,5.8,22,4.6l3.1,24.8c-5.1.6-21.6,1.6-37.6-7.5ZM372.5,326.1l-3.1-24.8c8.8-1.9,14.3-6.2,17.6-10l20.8,13.1c-11.3,15.3-27.4,20.2-35.3,21.7h0ZM409.5,301.9l-20.7-13c5.9-8.4,5.8-17.5,5.1-22.2l23.5-6.5c1.4,7,3.2,24.8-7.9,41.8h0Z" />
      </g>
    </g>
  </g>
  <g>
    <g>
      <path
        d="M92.1,229.8c-.1-.9-.8-2.3-.8-3,0-.5.6-1.3.7-2,.4-2.3-.2-5.4-1.4-6.6,0,0-.2-.1-.3-.1-1.1-.2-1.3-.3-2.2-.9-2.7-1.9,1.8-5.6-6.4-8.8,0,0-.2,0-.3,0-4.6,1.2-4.6.1-5.3-2.1,0-.1,0-.2-.2-.3-2-1.6-4.5-1.7-7.3-.7-1.1.4-2.4,1.7-3.3,1.9-1.7.4-2.9-.1-4.9.8-3.6,1.5-3.2,3.3-5.2,5.7-.6.7-1.8,1.2-2.4,1.9-1.8,1.8-3.5,5.6-3.5,8.1,0,1,.4,1.8.3,2.7-.3,2.8-1.3,3.7-.5,7.3.7,2.9,2.4,3.4,3.4,5.3.5,1,.7,2.3,1.4,3.4,1.5,2.4,3.9,4.2,6.6,5,2,.6,2.8,1,4.7,1.8,2.6,1.1,6.2,1.3,8.9.5,1.2-.4,2.3-1.3,3.3-1.6,2.7-.8,3.7-.5,6.2-2.5,2.5-2,2.2-3,3.5-5.1.6-.9,2-1.7,2.7-2.8,1.4-1.9,2.4-5.4,2.2-7.8Z" />
      <path
        class="st2"
        d="M89.2,226.2c0-.8.8-1.8.9-3,0-1-.3-1.8-.6-2.6,0-.3-.1-.8-.4-.9-2.5-1-2-.4-3.9-2.1-.5-.5-.3-4.1-.3-4.3.1-2.1-2.6-3.3-3.2-3.2-6.7,1.1-6.7-1.7-6.7-2.6,0-.7-.2-.5-.5-.6-1.8-.4-3.8-.3-5.5.5-.7.3-1.5,1.2-2.1,1.4-2.4.8-4.2-.1-6.6,1.8-.5.4-.9.9-1.2,1.4-.5.6-.8,1.3-1.1,1.9-.1.2-.2.5-.4.7,0,0-.1.2-.2.3-1.3,1.8-3.2,2.2-4.5,5-1.4,3.2-.5,4.1-.7,6.9,0,.8-1.1,2-1.1,3.3,0,4.1,2.5,5.3,3.8,8.1,1.7,3.4,2.2,5.5,6.4,6.6,2.4.6,2.6,1,4.7,1.8,2.3,1,5.1,1.3,7.6.5,1-.3,1.6-1.1,2.4-1.4,3-1.4,6.2-.6,8.2-4.5.4-.8.4-1.8.7-2.3.1-.2,1.3-1,1.8-1.5.3-.4.6-.8.9-1.2,1.7-2.2,2.6-4.7,2.2-7.6-.1-.8-.7-1.7-.7-2.4ZM62.5,227.9c-2.8-2.4,1-6.9,3.7-4.4,2.4,2.3-1,6.7-3.7,4.4ZM72.7,237.1c-2.8,1.7-8.1.5-8-3.3,0-.2.2-.4.4-.5.5-.1,1.2-.1,1.4,0,0,0,.4,1.1,1,1.6,1.2,1,3,1.1,4.3.2,1.2-.8.9-2.4,2.7-1.8.1,0,.3.2.3.3.6,1.3-1.1,2.9-2.1,3.5ZM77.1,228.6c-1.5,0-2.8-1.2-2.8-2.8s1.2-2.8,2.8-2.8,2.8,1.2,2.8,2.8-1.2,2.8-2.8,2.8Z" />
    </g>
    <circle class="st0" cx="77.8" cy="225.3" r="1.1" />
    <circle class="st0" cx="65.1" cy="225.3" r="1.1" />
  </g>
</svg>
